<svg width="320" height="320" viewBox="0 0 320 320" fill="none" xmlns="http://www.w3.org/2000/svg">
<rect width="320" height="320" rx="40" fill="#24BECA"/>
<path d="M160 281C226.826 281 281 226.826 281 160C281 93.1735 226.826 39 160 39C93.1735 39 39 93.1735 39 160C39 226.826 93.1735 281 160 281Z" fill="white"/>
<path d="M211.425 201.972C204.996 210.669 196.678 219.744 185.712 226.55C175.125 233.356 163.025 238.65 148.656 238.65C135.421 238.65 124.456 231.844 118.406 226.172C109.331 217.475 104.415 204.997 102.903 193.275C98.3652 156.975 120.675 108.953 155.084 88.1565C163.025 83.2409 171.721 80.9721 180.04 80.9721C196.678 80.9721 209.156 92.694 210.668 107.063C212.181 119.919 207.265 130.885 192.896 138.069C185.712 141.85 181.931 141.472 180.796 139.96C180.04 138.825 180.418 136.935 181.931 135.8C195.165 124.835 195.543 115.76 194.031 102.903C192.896 94.5846 187.603 89.2909 181.553 89.2909C155.462 89.2909 117.65 147.9 122.943 190.25C124.834 206.888 135.043 226.172 156.218 226.172C163.025 226.172 170.587 224.281 177.015 220.878C191.762 213.316 198.19 208.022 206.887 195.922C208.021 194.41 209.156 192.519 210.29 191.006C211.046 189.494 212.559 189.116 213.693 189.116C214.828 189.116 216.34 190.25 216.34 192.141C216.34 193.275 215.962 195.544 214.45 197.435C214.071 198.191 212.937 200.46 211.425 201.972Z" fill="#24BECA"/>
</svg>
