<svg width="320" height="320" viewBox="0 0 320 320" fill="none" xmlns="http://www.w3.org/2000/svg">
<g clip-path="url(#clip0_28_73)">
<rect width="320" height="320" rx="40" fill="black"/>
<path d="M100.21 248.693C91.3226 248.693 83.0185 246.943 75.2979 243.441C67.5773 239.85 60.7994 234.823 54.964 228.359C49.1287 221.896 44.5502 214.265 41.2286 205.467C37.9967 196.579 36.3807 186.839 36.3807 176.245V170.32C36.3807 159.637 37.9518 149.897 41.0939 141.099C44.3258 132.211 48.7247 124.535 54.2907 118.072C59.9465 111.518 66.4551 106.491 73.8166 102.989C81.1781 99.3985 89.0783 97.603 97.5171 97.603C105.597 97.603 113.003 99.1292 119.736 102.182C126.469 105.144 132.305 109.363 137.242 114.84C142.27 120.316 146.13 126.869 148.823 134.5C151.516 142.131 152.863 150.57 152.863 159.817V168.3H41.0939V161.029H145.591V159.278C145.591 149.493 143.616 140.515 139.666 132.346C135.716 124.086 130.15 117.443 122.968 112.416C115.786 107.388 107.302 104.875 97.5171 104.875C89.4374 104.875 82.0759 106.58 75.4326 109.992C68.879 113.403 63.2233 118.116 58.4652 124.131C53.7072 130.056 50.0264 136.969 47.423 144.869C44.9093 152.769 43.6525 161.253 43.6525 170.32V176.245C43.6525 185.313 45.0889 193.796 47.9616 201.696C50.8344 209.597 54.8294 216.554 59.9465 222.569C65.0636 228.494 71.0336 233.162 77.8565 236.574C84.7691 239.895 92.2204 241.556 100.21 241.556C108.559 241.556 116.325 240.165 123.507 237.382C130.778 234.599 137.422 229.302 143.437 221.492L148.554 225.127C145.322 229.706 141.417 233.791 136.838 237.382C132.35 240.883 127.053 243.666 120.948 245.731C114.933 247.706 108.021 248.693 100.21 248.693ZM182.892 100.296L229.485 164.934L275.944 100.296H285.101L233.929 171.263L287.794 246H278.771L229.351 177.592L180.065 246H171.042L224.907 171.263L173.735 100.296H182.892Z" fill="white"/>
</g>
<defs>
<clipPath id="clip0_28_73">
<rect width="320" height="320" rx="40" fill="white"/>
</clipPath>
</defs>
</svg>
