<svg width="320" height="320" viewBox="0 0 320 320" fill="none" xmlns="http://www.w3.org/2000/svg">
<rect width="320" height="320" rx="40" fill="white"/>
<path d="M71.0007 235.346L72.4886 233.262L142.859 99.7367L143.008 98.323L111.988 40.0546C109.387 35.1737 102.07 36.4072 101.218 41.8712L71.0007 235.346Z" fill="#FFC24A"/>
<path d="M71.8782 233.758L73.0031 231.564L142.629 99.4375L111.694 40.9322C109.122 36.1018 102.592 37.3332 101.742 42.7405L71.8782 233.758Z" fill="#FFA712"/>
<path d="M71.8782 233.758L73.0031 231.564L142.629 99.4375L111.694 40.9322C109.122 36.1018 102.592 37.3332 101.742 42.7405L71.8782 233.758Z" fill="#FFA000"/>
<path d="M165.621 142.399L188.719 118.744L165.615 74.6385C163.421 70.4634 157.298 70.4515 155.128 74.6385L142.783 98.1878V100.192L165.621 142.399Z" fill="#F4BD62"/>
<path d="M165.209 141.414L187.663 118.417L165.209 75.6586C163.077 71.5936 157.897 71.1744 155.787 75.2381L143.378 99.1379L143.007 100.36L165.209 141.414Z" fill="#FFA50E"/>
<path d="M165.209 141.414L187.663 118.417L165.209 75.6586C163.077 71.5936 157.897 71.1744 155.787 75.2381L143.378 99.1379L143.007 100.36L165.209 141.414Z" fill="#FFA000"/>
<path d="M142.848 98.0512L71 235.347L71.6742 234.669L74.1245 233.674L164.171 143.962L165.311 140.857L142.848 98.0512Z" fill="#F6820C"/>
<path d="M168.505 280.59L249.999 235.14L226.734 91.8099C226.005 87.3257 220.504 85.5525 217.295 88.7681L71 235.347L152.026 280.587C154.545 281.993 157.381 282.731 160.266 282.732C163.15 282.732 165.987 281.995 168.506 280.591" fill="#FDE068"/>
<path d="M249.27 234.76L226.175 92.5236C225.453 88.0731 220.876 86.2319 217.691 89.4229L71.9114 235.068L152.048 279.854C157.129 282.691 163.318 282.693 168.402 279.858L249.27 234.76Z" fill="#FCCA3F"/>
<path d="M168.505 279.252C163.389 282.108 157.146 282.107 152.026 279.247L71.6518 234.659L71 235.347L152.026 280.587C157.147 283.447 163.383 283.447 168.506 280.591L250 235.141L249.8 233.913L168.505 279.252Z" fill="#EEAB37"/>
</svg>
