<svg width="320" height="320" viewBox="0 0 320 320" fill="none" xmlns="http://www.w3.org/2000/svg">
<rect width="320" height="320" rx="40" fill="#4E7896"/>
<path d="M126.757 229.139C126.757 229.139 116.965 235.1 133.567 236.805C153.58 239.355 164.221 238.93 186.364 234.68C190.814 237.404 195.52 239.685 200.416 241.491C150.6 262.779 87.5762 240.216 126.751 229.145L126.757 229.139ZM120.371 201.461C120.371 201.461 109.724 209.552 126.332 211.252C148.049 213.377 165.076 213.802 194.46 207.852C197.318 210.751 200.818 212.939 204.676 214.237C144.644 232.12 77.3654 215.938 120.366 201.466L120.371 201.461ZM237.885 250.002C237.885 250.002 245.126 255.963 229.794 260.648C201.266 269.164 110.144 271.72 84.6012 260.648C75.6601 256.823 92.6922 251.282 98.228 250.432C103.764 249.157 106.744 249.157 106.744 249.157C96.9529 242.346 41.5957 263.209 78.5873 269.17C180.35 285.777 264.231 261.934 237.832 250.007L237.885 250.002ZM131.442 172.507C131.442 172.507 85.0315 183.579 114.835 187.409C127.607 189.109 152.73 188.684 176.142 186.984C195.305 185.284 214.462 181.873 214.462 181.873C214.462 181.873 207.651 184.848 202.966 187.834C155.705 200.18 65.0083 194.645 90.9763 181.873C113.119 171.227 131.426 172.507 131.426 172.507H131.442ZM214.478 218.918C262.164 194.214 240.032 170.377 224.7 173.357C220.875 174.207 219.164 175.057 219.164 175.057C219.164 175.057 220.439 172.507 223.414 171.657C253.643 161.011 277.496 203.586 213.623 220.198C213.623 220.198 214.048 219.773 214.473 218.923L214.478 218.918ZM136.128 286.191C182.114 289.166 252.368 284.491 254.068 262.773C254.068 262.773 250.668 271.289 216.173 277.675C176.998 284.916 128.515 284.061 99.9333 279.375C99.9333 279.375 105.894 284.486 136.123 286.186L136.128 286.191Z" fill="white"/>
<path d="M185.514 32C185.514 32 211.917 58.8286 160.385 99.2734C119.085 132.052 151.019 150.795 160.385 172.082C136.117 150.37 118.66 131.207 130.635 113.325C148.049 86.9322 196.16 74.1554 185.514 32ZM171.887 154.2C184.233 168.252 168.487 181.029 168.487 181.029C168.487 181.029 199.99 164.847 185.519 144.834C172.317 125.672 162.101 116.306 217.448 84.3769C217.448 84.3769 130.162 106.095 171.887 154.206V154.2Z" fill="#F58219"/>
</svg>
