<svg width="320" height="320" viewBox="0 0 320 320" fill="none" xmlns="http://www.w3.org/2000/svg">
<g clip-path="url(#clip0_28_77)">
<rect width="320" height="320" rx="40" fill="#00678C"/>
<mask id="path-2-inside-1_28_77" fill="white">
<path fill-rule="evenodd" clip-rule="evenodd" d="M-369.962 363.129H-348.116V276.584L-313.999 352.04C-310.134 361.11 -304.582 364.47 -293.833 364.47C-283.083 364.47 -277.862 361.106 -273.87 352.04L-239.922 276.584V363.129H-217.906V276.584C-217.906 268.185 -221.27 264.143 -228.328 261.959C-244.965 256.919 -256.058 261.288 -261.097 272.543L-294.537 347.159L-326.805 272.543C-331.679 261.288 -342.941 256.919 -359.744 261.959C-366.636 264.143 -369.996 268.181 -369.996 276.584L-370 363.129H-369.962ZM-199.721 292.717H-177.706V340.277C-177.871 342.963 -176.866 349.015 -164.899 349.177C-158.684 349.347 -117.508 349.177 -117.177 349.177V292.378H-95.1614V370.187C-95.1614 389.344 -118.891 393.54 -129.949 393.713H-199.179V379.099H-129.772C-115.655 377.585 -117.335 370.53 -117.335 368.176V362.458H-163.89C-185.57 362.289 -199.522 352.71 -199.684 341.787V292.709L-199.721 292.717ZM272.508 237.593C259.069 237.254 248.643 238.602 239.905 242.301C237.389 243.318 233.351 243.318 233.019 246.505C234.364 247.842 234.526 250.03 235.705 251.883C237.72 255.247 241.253 259.778 244.443 262.128C247.976 264.821 251.506 267.507 255.197 269.861C261.751 273.891 269.144 276.245 275.529 280.279C279.228 282.634 282.923 285.658 286.621 288.182C288.505 289.526 289.646 291.715 292 292.551V292.042C290.825 290.536 290.486 288.351 289.314 286.664C287.631 284.988 285.951 283.47 284.267 281.794C279.397 275.24 273.344 269.522 266.79 264.821C261.412 261.123 249.652 256.083 247.468 249.868L247.136 249.529C250.828 249.19 255.197 247.846 258.73 246.836C264.448 245.329 269.653 245.661 275.529 244.151C278.222 243.473 280.907 242.636 283.601 241.796V240.29C280.576 237.265 278.391 233.231 275.201 230.376C266.632 222.982 257.216 215.754 247.468 209.705C242.259 206.346 235.535 204.157 229.991 201.306C227.968 200.296 224.612 199.792 223.437 198.112C220.405 194.421 218.729 189.543 216.544 185.17C211.674 175.927 206.966 165.678 202.766 155.93C199.742 149.376 197.889 142.822 194.197 136.773C176.886 108.204 158.061 90.8966 129.156 73.9207C122.941 70.3914 115.548 68.8735 107.687 67.0279L95.084 66.3499C92.3909 65.1747 89.7054 61.9807 87.3512 60.4665C77.7729 54.4174 53.068 41.3098 46.0057 58.6209C41.467 69.5439 52.729 80.2975 56.552 85.8456C59.4146 89.7101 63.1059 94.0793 65.1285 98.4486C66.2585 101.304 66.6352 104.332 67.8141 107.356C70.4997 114.75 73.0233 122.988 76.5525 129.881C78.4358 133.41 80.4133 137.112 82.7674 140.303C84.112 142.148 86.4661 142.992 86.9671 146.016C84.613 149.38 84.451 154.416 83.1063 158.623C77.0535 177.614 79.4076 201.14 87.9765 215.084C90.6696 219.284 97.0163 228.531 105.627 224.998C113.19 221.973 111.503 212.395 113.687 203.991C114.196 201.976 113.857 200.632 114.862 199.283V199.622L121.755 213.57C126.964 221.804 136.042 230.376 143.601 236.094C147.631 239.118 150.825 244.331 155.865 246.177V245.668H155.534C154.524 244.162 153.01 243.484 151.665 242.309C148.641 239.284 145.281 235.585 142.927 232.226C135.872 222.817 129.657 212.395 124.109 201.641C121.416 196.432 119.062 190.718 116.885 185.509C115.868 183.49 115.868 180.462 114.192 179.46C111.668 183.151 107.977 186.353 106.12 190.888C102.926 198.112 102.595 207.02 101.419 216.263C100.741 216.432 101.043 216.263 100.741 216.602C95.3703 215.261 93.5171 209.709 91.502 205.008C86.4623 193.076 85.6186 173.919 89.9878 160.137C91.163 156.608 96.2102 145.516 94.1951 142.156C93.1781 138.962 89.8259 137.116 87.9727 134.593C85.7881 131.398 83.4415 127.368 81.9274 123.839C77.8972 114.423 75.8821 104.008 71.5091 94.5954C69.4865 90.2262 65.9609 85.6874 63.1021 81.6572C59.9081 77.1185 56.3864 73.9245 53.8628 68.5496C53.0228 66.704 51.8476 63.6756 53.1923 61.6568C53.5237 60.3121 54.2017 59.8111 55.5388 59.4722C57.7235 57.6265 63.9458 59.9769 66.1304 60.9788C72.3452 63.5024 77.5544 65.8527 82.7635 69.3782C85.1177 71.0581 87.6413 74.2521 90.6659 75.0959H94.1989C99.5775 76.271 105.623 75.4349 110.659 76.9415C119.567 79.8041 127.631 84 134.863 88.5425C156.874 102.49 175.029 122.321 187.293 146.02C189.308 149.885 190.148 153.414 192.001 157.448C195.534 165.685 199.904 174.085 203.425 182.157C206.958 190.055 210.318 198.127 215.358 204.681C217.882 208.21 227.961 210.056 232.496 211.905C235.859 213.412 241.065 214.768 244.097 216.613C249.807 220.142 255.521 224.176 260.896 228.041C263.581 230.052 271.988 234.256 272.489 237.608L272.508 237.593ZM101.129 91.5557C98.8075 91.5352 96.4929 91.8176 94.244 92.3957V92.7347H94.5755C95.9202 95.424 98.2743 97.2734 99.9542 99.6275L103.822 107.695L104.154 107.356C106.508 105.677 107.687 102.987 107.687 98.957C106.677 97.7819 106.512 96.6029 105.672 95.4278C104.662 93.7479 102.478 92.9042 101.129 91.5633V91.5557Z"/>
</mask>
<path fill-rule="evenodd" clip-rule="evenodd" d="M-369.962 363.129H-348.116V276.584L-313.999 352.04C-310.134 361.11 -304.582 364.47 -293.833 364.47C-283.083 364.47 -277.862 361.106 -273.87 352.04L-239.922 276.584V363.129H-217.906V276.584C-217.906 268.185 -221.27 264.143 -228.328 261.959C-244.965 256.919 -256.058 261.288 -261.097 272.543L-294.537 347.159L-326.805 272.543C-331.679 261.288 -342.941 256.919 -359.744 261.959C-366.636 264.143 -369.996 268.181 -369.996 276.584L-370 363.129H-369.962ZM-199.721 292.717H-177.706V340.277C-177.871 342.963 -176.866 349.015 -164.899 349.177C-158.684 349.347 -117.508 349.177 -117.177 349.177V292.378H-95.1614V370.187C-95.1614 389.344 -118.891 393.54 -129.949 393.713H-199.179V379.099H-129.772C-115.655 377.585 -117.335 370.53 -117.335 368.176V362.458H-163.89C-185.57 362.289 -199.522 352.71 -199.684 341.787V292.709L-199.721 292.717ZM272.508 237.593C259.069 237.254 248.643 238.602 239.905 242.301C237.389 243.318 233.351 243.318 233.019 246.505C234.364 247.842 234.526 250.03 235.705 251.883C237.72 255.247 241.253 259.778 244.443 262.128C247.976 264.821 251.506 267.507 255.197 269.861C261.751 273.891 269.144 276.245 275.529 280.279C279.228 282.634 282.923 285.658 286.621 288.182C288.505 289.526 289.646 291.715 292 292.551V292.042C290.825 290.536 290.486 288.351 289.314 286.664C287.631 284.988 285.951 283.47 284.267 281.794C279.397 275.24 273.344 269.522 266.79 264.821C261.412 261.123 249.652 256.083 247.468 249.868L247.136 249.529C250.828 249.19 255.197 247.846 258.73 246.836C264.448 245.329 269.653 245.661 275.529 244.151C278.222 243.473 280.907 242.636 283.601 241.796V240.29C280.576 237.265 278.391 233.231 275.201 230.376C266.632 222.982 257.216 215.754 247.468 209.705C242.259 206.346 235.535 204.157 229.991 201.306C227.968 200.296 224.612 199.792 223.437 198.112C220.405 194.421 218.729 189.543 216.544 185.17C211.674 175.927 206.966 165.678 202.766 155.93C199.742 149.376 197.889 142.822 194.197 136.773C176.886 108.204 158.061 90.8966 129.156 73.9207C122.941 70.3914 115.548 68.8735 107.687 67.0279L95.084 66.3499C92.3909 65.1747 89.7054 61.9807 87.3512 60.4665C77.7729 54.4174 53.068 41.3098 46.0057 58.6209C41.467 69.5439 52.729 80.2975 56.552 85.8456C59.4146 89.7101 63.1059 94.0793 65.1285 98.4486C66.2585 101.304 66.6352 104.332 67.8141 107.356C70.4997 114.75 73.0233 122.988 76.5525 129.881C78.4358 133.41 80.4133 137.112 82.7674 140.303C84.112 142.148 86.4661 142.992 86.9671 146.016C84.613 149.38 84.451 154.416 83.1063 158.623C77.0535 177.614 79.4076 201.14 87.9765 215.084C90.6696 219.284 97.0163 228.531 105.627 224.998C113.19 221.973 111.503 212.395 113.687 203.991C114.196 201.976 113.857 200.632 114.862 199.283V199.622L121.755 213.57C126.964 221.804 136.042 230.376 143.601 236.094C147.631 239.118 150.825 244.331 155.865 246.177V245.668H155.534C154.524 244.162 153.01 243.484 151.665 242.309C148.641 239.284 145.281 235.585 142.927 232.226C135.872 222.817 129.657 212.395 124.109 201.641C121.416 196.432 119.062 190.718 116.885 185.509C115.868 183.49 115.868 180.462 114.192 179.46C111.668 183.151 107.977 186.353 106.12 190.888C102.926 198.112 102.595 207.02 101.419 216.263C100.741 216.432 101.043 216.263 100.741 216.602C95.3703 215.261 93.5171 209.709 91.502 205.008C86.4623 193.076 85.6186 173.919 89.9878 160.137C91.163 156.608 96.2102 145.516 94.1951 142.156C93.1781 138.962 89.8259 137.116 87.9727 134.593C85.7881 131.398 83.4415 127.368 81.9274 123.839C77.8972 114.423 75.8821 104.008 71.5091 94.5954C69.4865 90.2262 65.9609 85.6874 63.1021 81.6572C59.9081 77.1185 56.3864 73.9245 53.8628 68.5496C53.0228 66.704 51.8476 63.6756 53.1923 61.6568C53.5237 60.3121 54.2017 59.8111 55.5388 59.4722C57.7235 57.6265 63.9458 59.9769 66.1304 60.9788C72.3452 63.5024 77.5544 65.8527 82.7635 69.3782C85.1177 71.0581 87.6413 74.2521 90.6659 75.0959H94.1989C99.5775 76.271 105.623 75.4349 110.659 76.9415C119.567 79.8041 127.631 84 134.863 88.5425C156.874 102.49 175.029 122.321 187.293 146.02C189.308 149.885 190.148 153.414 192.001 157.448C195.534 165.685 199.904 174.085 203.425 182.157C206.958 190.055 210.318 198.127 215.358 204.681C217.882 208.21 227.961 210.056 232.496 211.905C235.859 213.412 241.065 214.768 244.097 216.613C249.807 220.142 255.521 224.176 260.896 228.041C263.581 230.052 271.988 234.256 272.489 237.608L272.508 237.593ZM101.129 91.5557C98.8075 91.5352 96.4929 91.8176 94.244 92.3957V92.7347H94.5755C95.9202 95.424 98.2743 97.2734 99.9542 99.6275L103.822 107.695L104.154 107.356C106.508 105.677 107.687 102.987 107.687 98.957C106.677 97.7819 106.512 96.6029 105.672 95.4278C104.662 93.7479 102.478 92.9042 101.129 91.5633V91.5557Z" fill="white" stroke="white" stroke-width="26" mask="url(#path-2-inside-1_28_77)"/>
</g>
<defs>
<clipPath id="clip0_28_77">
<rect width="320" height="320" rx="40" fill="white"/>
</clipPath>
</defs>
</svg>
