<svg width="320" height="320" viewBox="0 0 320 320" fill="none" xmlns="http://www.w3.org/2000/svg">
<rect width="320" height="320" rx="40" fill="#333333"/>
<path d="M159.999 47C156.96 47 154.005 47.6278 151.389 49.108L68.6127 96.9102C63.256 99.9977 60 105.826 60 112.028V207.459C60 213.656 63.256 219.476 68.6127 222.571L90.23 235.051C100.733 240.227 104.605 240.146 109.385 240.146C124.935 240.146 133.814 230.71 133.814 214.313V120.11C133.814 118.779 132.661 117.826 131.354 117.826H120.985C119.656 117.826 118.525 118.779 118.525 120.11V214.313C118.525 221.58 110.953 228.89 98.6669 222.747L76.1702 209.567C75.3739 209.134 74.7633 208.37 74.7633 207.459V112.025C74.7633 111.121 75.3666 110.201 76.1702 109.741L158.77 62.1174C159.143 61.8994 159.568 61.7845 160 61.7845C160.432 61.7845 160.857 61.8994 161.23 62.1174L243.832 109.744C244.619 110.218 245.239 111.095 245.239 112.03V207.461C245.239 208.372 244.78 209.305 244.008 209.745L161.23 257.371C160.521 257.794 159.544 257.794 158.77 257.371L137.505 244.719C137.181 244.543 136.819 244.451 136.451 244.451C136.082 244.451 135.72 244.543 135.397 244.719C129.527 248.045 128.423 248.431 122.917 250.342C121.562 250.815 119.502 251.551 123.621 253.859L151.389 270.2C154.007 271.711 156.979 272.5 160.001 272.486C163.023 272.505 165.996 271.717 168.611 270.203L251.39 222.574C256.746 219.459 260 213.658 260 207.461V112.028C260 105.828 256.746 100.01 251.39 96.9151L168.611 49.1129C166.017 47.6302 163.042 47.0024 160.001 47.0024L159.999 47Z" fill="#669E64"/>
<path d="M182.144 115.191C158.572 115.191 144.534 125.223 144.534 141.906C144.534 160.001 158.467 164.974 181.091 167.212C208.155 169.862 210.263 173.836 210.263 179.163C210.263 188.404 202.896 192.344 185.485 192.344C163.606 192.344 158.799 186.882 157.19 176C156.999 174.833 156.098 173.89 154.903 173.89H144.183C142.864 173.89 141.723 175.028 141.723 176.352C141.723 190.282 149.3 206.755 185.485 206.755C211.677 206.755 226.785 196.474 226.785 178.46C226.785 160.604 214.582 155.809 189.173 152.451C163.501 149.053 161.054 147.39 161.054 141.378C161.054 136.415 163.13 129.776 182.144 129.776C199.13 129.776 205.407 133.44 207.979 144.893C208.204 145.968 209.152 146.825 210.263 146.825H220.986C221.646 146.825 222.286 146.42 222.743 145.946C223.192 145.44 223.509 144.871 223.446 144.19C221.785 124.468 208.634 115.191 182.144 115.191Z" fill="#669E64"/>
</svg>
