<svg width="320" height="320" viewBox="0 0 320 320" fill="none" xmlns="http://www.w3.org/2000/svg">
<rect width="320" height="320" rx="40" fill="white"/>
<path d="M158.207 36C148.093 36.0446 138.432 36.9113 129.937 38.4217C104.891 42.8445 100.354 52.1044 100.354 69.1774V91.7248H159.52V99.2448H78.1507C60.9566 99.2448 45.9038 109.582 41.1878 129.242C35.7581 151.777 35.4522 165.842 41.1878 189.371C45.3939 206.883 55.4376 219.368 72.6318 219.368H92.9741V192.334C92.9741 172.807 109.862 155.581 129.937 155.581H189.033C205.475 155.581 218.616 142.039 218.616 125.514V69.2284C218.616 53.1941 205.093 41.1493 189.033 38.4727C178.868 36.7839 168.321 36.0127 158.207 36.051V36ZM126.215 54.1373C132.333 54.1373 137.317 59.2102 137.317 65.4492C137.317 71.6883 132.327 76.6911 126.215 76.6911C120.104 76.6911 115.114 71.6565 115.114 65.4492C115.114 59.242 120.085 54.1373 126.215 54.1373Z" fill="url(#paint0_linear_28_67)"/>
<path d="M225.996 99.2319V125.507C225.996 145.875 208.789 163.018 189.033 163.018H129.943C113.756 163.018 100.36 176.873 100.36 193.086V249.422C100.36 265.457 114.304 274.889 129.943 279.49C148.68 284.996 166.632 285.99 189.039 279.49C203.933 275.175 218.622 266.489 218.622 249.422V226.875H159.513V219.355H248.193C265.387 219.355 271.798 207.361 277.776 189.358C283.957 170.825 283.69 153 277.776 129.229C273.525 112.112 265.412 99.2319 248.193 99.2319H225.989H225.996ZM192.761 241.902C198.892 241.902 203.863 246.937 203.863 253.144C203.863 259.351 198.892 264.456 192.761 264.456C186.63 264.456 181.659 259.383 181.659 253.144C181.659 246.905 186.649 241.902 192.761 241.902Z" fill="url(#paint1_linear_28_67)"/>
<defs>
<linearGradient id="paint0_linear_28_67" x1="37.0263" y1="36" x2="172.349" y2="153.548" gradientUnits="userSpaceOnUse">
<stop stop-color="#5A9FD4"/>
<stop offset="1" stop-color="#306998"/>
</linearGradient>
<linearGradient id="paint1_linear_28_67" x1="191.333" y1="251.245" x2="143.014" y2="182.22" gradientUnits="userSpaceOnUse">
<stop stop-color="#FFD43B"/>
<stop offset="1" stop-color="#FFE873"/>
</linearGradient>
</defs>
</svg>
