<svg width="320" height="320" viewBox="0 0 320 320" fill="none" xmlns="http://www.w3.org/2000/svg">
<rect width="320" height="320" rx="40" fill="white"/>
<path d="M255.846 208.463C244.747 214.249 187.246 237.891 175.004 244.272C162.763 250.656 155.962 250.594 146.292 245.971C136.622 241.348 75.4309 216.631 64.4084 211.362C58.8989 208.729 56.0024 206.507 56.0024 204.408V183.384C56.0024 183.384 135.664 166.041 148.526 161.428C161.386 156.813 165.848 156.647 176.792 160.656C187.737 164.665 253.178 176.473 263.995 180.434C263.995 180.434 263.991 199.211 263.991 201.16C263.992 203.239 261.496 205.519 255.846 208.463Z" fill="#A41E11"/>
<path d="M255.847 187.434C244.747 193.217 187.246 216.862 175.005 223.243C162.763 229.627 155.963 229.564 146.292 224.941C136.621 220.321 75.4314 195.599 64.4089 190.333C53.3863 185.064 53.1552 181.438 63.9834 177.199C74.8103 172.957 135.665 149.082 148.528 144.467C161.388 139.855 165.849 139.687 176.794 143.697C187.739 147.706 244.896 170.457 255.712 174.418C266.531 178.384 266.946 181.648 255.847 187.434Z" fill="#D82C20"/>
<path d="M255.846 174.18C244.747 179.966 187.246 203.608 175.004 209.991C162.763 216.373 155.962 216.31 146.292 211.687C136.62 207.067 75.4309 182.348 64.4084 177.079C58.8989 174.445 56.0024 172.226 56.0024 170.127V149.1C56.0024 149.1 135.664 131.759 148.526 127.144C161.386 122.531 165.848 122.364 176.792 126.373C187.737 130.382 253.178 142.187 263.995 146.15C263.995 146.15 263.991 164.927 263.991 166.878C263.992 168.956 261.496 171.236 255.846 174.18Z" fill="#A41E11"/>
<path d="M255.847 153.149C244.747 158.935 187.246 182.577 175.005 188.961C162.763 195.342 155.963 195.28 146.292 190.657C136.621 186.036 75.4314 161.316 64.4089 156.048C53.3863 150.781 53.1552 147.155 63.9834 142.913C74.8103 138.674 135.665 114.797 148.528 110.184C161.388 105.571 165.849 105.403 176.794 109.413C187.739 113.422 244.896 136.171 255.712 140.134C266.531 144.098 266.946 147.364 255.847 153.149Z" fill="#D82C20"/>
<path d="M255.846 138.624C244.747 144.41 187.246 168.053 175.004 174.436C162.763 180.818 155.962 180.755 146.292 176.132C136.62 171.512 75.4309 146.791 64.4084 141.524C58.8989 138.89 56.0024 136.67 56.0024 134.572V113.545C56.0024 113.545 135.664 96.2037 148.526 91.5905C161.386 86.9761 165.848 86.8098 176.792 90.819C187.737 94.8282 253.178 106.633 263.995 110.596C263.995 110.596 263.991 129.373 263.991 131.323C263.992 133.399 261.496 135.679 255.846 138.624Z" fill="#A41E11"/>
<path d="M255.846 117.593C244.747 123.379 187.246 147.022 175.005 153.405C162.763 159.786 155.962 159.723 146.292 155.102C136.622 150.48 75.4312 125.761 64.4086 120.493C53.3861 115.226 53.155 111.598 63.9831 107.358C74.81 103.118 135.665 79.2434 148.527 74.629C161.388 70.0146 165.849 69.8483 176.793 73.8587C187.739 77.8679 244.896 100.617 255.712 104.58C266.53 108.542 266.946 111.809 255.846 117.593Z" fill="#D82C20"/>
<path d="M187.254 97.3455L169.232 99.2162L165.197 108.924L158.68 98.0913L137.87 96.2206L153.398 90.6207L148.739 82.0253L163.277 87.7107L176.983 83.2235L173.279 92.1124L187.254 97.3455Z" fill="white"/>
<path d="M164.119 144.444L130.483 130.493L178.681 123.096L164.119 144.444Z" fill="white"/>
<path d="M117.487 122.713C131.715 122.713 143.248 118.242 143.248 112.727C143.248 107.212 131.715 102.742 117.487 102.742C103.26 102.742 91.7267 107.212 91.7267 112.727C91.7267 118.242 103.26 122.713 117.487 122.713Z" fill="white"/>
<path d="M208.552 99.999L237.078 111.272L208.577 122.533L208.552 99.999Z" fill="#7A0C00"/>
<path d="M176.996 112.483L208.553 99.999L208.578 122.533L205.484 123.743L176.996 112.483Z" fill="#AD2115"/>
</svg>
